<svg width="254" height="77" viewBox="0 0 254 77" fill="none" xmlns="http://www.w3.org/2000/svg">
<path fill-rule="evenodd" clip-rule="evenodd" d="M28.4954 0V49.0619H76.666V28.3469H48.8491V0H28.4954Z" fill="#501CD2"/>
<path fill-rule="evenodd" clip-rule="evenodd" d="M0 48.3805H20.3538V27.938H0V48.3805Z" fill="#01C3A2"/>
<path fill-rule="evenodd" clip-rule="evenodd" d="M27.8169 77.0001H48.1707V56.5576H27.8169V77.0001Z" fill="#01C3A2"/>
<path fill-rule="evenodd" clip-rule="evenodd" d="M187.105 41.1285C183.988 41.1285 181.752 38.6083 181.752 35.0665C181.752 31.5246 183.921 29.0044 187.105 29.0044C190.29 29.0044 192.391 31.3884 192.391 35.3389C192.391 39.2894 190.222 41.1285 187.105 41.1285ZM177.348 56.6582C179.923 57.6799 183.243 58.4291 186.36 58.4291C191.171 58.4291 194.288 57.2031 196.592 54.6829C198.489 52.6396 199.437 49.7107 199.437 46.1007V23.1467H192.323V26.2118C190.9 24.4409 188.528 22.8743 185.14 22.8743C181.346 22.8743 174.231 25.735 174.231 35.3389C174.231 44.9428 181.278 47.463 185.344 47.463C188.257 47.463 190.697 46.5775 192.391 44.6022V45.9645C192.391 49.3701 190.222 51.8222 186.496 51.8222C182.633 51.8222 179.245 50.4599 179.245 50.4599L177.348 56.6582Z" fill="#250D53"/>
<path fill-rule="evenodd" clip-rule="evenodd" d="M98.4092 48.4847H121.515V41.4691H106.54V17.0847H98.4092V48.4847Z" fill="#250D53"/>
<path fill-rule="evenodd" clip-rule="evenodd" d="M225.863 23.1467H218.816V38.6083C218.681 40.7198 216.58 42.2183 214.412 42.2183C211.837 42.2183 210.008 40.7879 210.008 38.2678V23.1467H202.961V38.3359C202.961 44.466 206.078 49.0296 212.515 49.0296C215.022 49.0296 217.122 47.9398 218.884 46.237V48.4847H225.999V23.1467H225.863Z" fill="#250D53"/>
<path fill-rule="evenodd" clip-rule="evenodd" d="M235.688 32.7506C236.366 30.2304 238.263 28.8001 241.041 28.8001C243.684 28.8001 245.445 30.2304 245.852 32.7506H235.688ZM241.177 22.6699C233.656 22.6699 228.37 28.0508 228.37 35.7476C228.37 43.5805 234.265 48.8252 242.261 48.8252C246.53 48.8252 249.579 47.8716 251.747 46.7818L249.443 41.0604C247.343 41.8777 245.31 42.1502 242.735 42.1502C239.144 42.1502 236.366 40.1068 235.756 37.9953H253.577V35.8838C253.577 27.7103 248.562 22.6699 241.177 22.6699Z" fill="#250D53"/>
<path fill-rule="evenodd" clip-rule="evenodd" d="M164.677 37.6547V38.2678C164.677 40.9242 162.374 42.9675 159.392 42.9675C157.427 42.9675 156.275 42.1502 156.275 40.7198C156.275 39.4257 157.224 38.6083 158.986 38.3359L164.677 37.6547ZM160.341 22.738C154.378 22.738 150.245 24.5771 150.245 24.5771L152.142 30.7754C152.142 30.7754 155.869 29.345 160.408 29.345C162.848 29.345 164.745 30.2304 164.745 31.797V32.3419L163.796 32.4101L157.766 32.955C152.277 33.568 149.025 36.6331 149.025 40.9923C149.025 45.6921 152.548 48.8934 157.563 48.8934C160.476 48.8934 163.051 47.7354 164.745 45.7602V48.3485H171.86V33.0912C171.792 26.2118 167.794 22.738 160.341 22.738Z" fill="#250D53"/>
<path fill-rule="evenodd" clip-rule="evenodd" d="M129.782 32.7506C130.459 30.2304 132.356 28.8001 135.134 28.8001C137.777 28.8001 139.539 30.2304 139.945 32.7506H129.782ZM135.338 22.6699C127.816 22.6699 122.531 28.0508 122.531 35.7476C122.531 43.5805 128.426 48.8252 136.422 48.8252C140.691 48.8252 143.74 47.8716 145.908 46.7818L143.604 41.0604C141.504 41.8777 139.471 42.1502 136.896 42.1502C133.305 42.1502 130.527 40.1068 129.917 37.9953H147.738V35.8838C147.67 27.7103 142.723 22.6699 135.338 22.6699Z" fill="#250D53"/>
</svg>
