<svg width="99" height="99" viewBox="0 0 99 99" fill="none" xmlns="http://www.w3.org/2000/svg">
<g clip-path="url(#clip0)">
<path d="M49.4992 0C48.4102 0 47.3336 0.037125 46.2632 0.105188L46.6592 6.28031C48.5506 6.15807 50.4479 6.15807 52.3393 6.28031L52.7353 0.105188C51.658 0.0353382 50.5788 0.000257474 49.4992 0V0ZM39.8467 0.9405C37.7059 1.36744 35.6145 1.9305 33.585 2.61112L35.5712 8.47688C37.347 7.8705 39.1723 7.38169 41.0409 7.01044L39.8467 0.946687V0.9405ZM65.4135 2.61731C63.3673 1.92359 61.2775 1.36551 59.1579 0.946687L57.9575 7.01044C59.8262 7.38169 61.6515 7.87669 63.4273 8.47688L65.4135 2.61731ZM77.0027 8.34075C75.2068 7.13879 73.3342 6.05573 71.3968 5.0985L68.6557 10.6425C70.3573 11.484 71.997 12.4369 73.5624 13.4826L77.0027 8.34075ZM27.5955 5.0985C25.6526 6.05756 23.784 7.14038 21.9958 8.34075L25.436 13.4764C27.0086 12.4267 28.6476 11.4801 30.3427 10.6425L27.5955 5.0985ZM16.8602 12.2822C15.239 13.7053 13.7045 15.2398 12.2814 16.8609L16.9344 20.9447C18.1843 19.5216 19.5208 18.1851 20.9439 16.9352L16.8602 12.2822ZM86.717 16.8609C85.2916 15.2371 83.7621 13.7076 82.1383 12.2822L78.0545 16.9352C79.4777 18.1851 80.8204 19.5216 82.064 20.9447L86.717 16.8609ZM93.9007 27.5963C92.9436 25.6608 91.8605 23.7902 90.6585 21.9966L85.5229 25.4368C86.5685 27.0023 87.5152 28.6419 88.3567 30.3435L93.9007 27.6024V27.5963ZM8.33998 21.9966C7.1396 23.7847 6.0506 25.6534 5.09773 27.6024L10.6417 30.3435C11.4832 28.6419 12.4361 27.0023 13.4818 25.4368L8.33998 21.9966ZM2.61654 33.5858C1.9228 35.632 1.36472 37.7217 0.945914 39.8413L7.00966 41.0417C7.38091 39.1731 7.87591 37.3478 8.4761 35.5719L2.61654 33.5858ZM98.0587 39.8475C97.6402 37.7258 97.0821 35.634 96.3881 33.5858L90.5224 35.5719C91.1287 37.3478 91.6175 39.1731 91.9888 41.0417L98.0525 39.8413L98.0587 39.8475ZM0.104414 46.2639C-0.0348047 48.4191 -0.0348047 50.5809 0.104414 52.7361L6.27954 52.3401C6.1573 50.4487 6.1573 48.5513 6.27954 46.6599L0.104414 46.2639ZM98.9992 49.5C98.999 48.4205 98.9639 47.3412 98.894 46.2639L92.7189 46.6599C92.8413 48.5513 92.8413 50.4487 92.7189 52.3401L98.894 52.7361C98.9639 51.6588 98.999 50.5795 98.9992 49.5ZM0.939726 59.1525C1.36666 61.2934 1.92973 63.3847 2.61035 65.4142L8.4761 63.4281C7.86754 61.639 7.37766 59.8118 7.00966 57.9583L0.945914 59.1587L0.939726 59.1525ZM96.3819 65.4142C97.0749 63.3847 97.6318 61.2934 98.0525 59.1587L91.9888 57.9583C91.6175 59.8269 91.1225 61.6523 90.5224 63.4281L96.3819 65.4142ZM5.09773 71.4037C6.05519 73.339 7.13825 75.2096 8.33998 77.0034L13.4756 73.5632C12.4249 71.9912 11.4782 70.3522 10.6417 68.6565L5.09773 71.3976V71.4037ZM90.6585 77.0034C91.8589 75.2152 92.9479 73.3466 93.9007 71.3976L88.3567 68.6565C87.5152 70.3581 86.5624 71.9977 85.5167 73.5632L90.6585 77.0034ZM12.2814 82.1391C13.7045 83.7602 15.239 85.2947 16.8602 86.7178L20.9439 82.0648C19.5218 80.8167 18.1825 79.4774 16.9344 78.0553L12.2814 82.1391ZM82.1383 86.7178C83.7594 85.2947 85.2939 83.7602 86.717 82.1391L82.064 78.0553C80.8204 79.4784 79.4777 80.8211 78.0545 82.0648L82.1383 86.7178ZM71.403 93.9015C73.3458 92.9424 75.2145 91.8596 77.0027 90.6593L73.5624 85.5236C71.9898 86.5733 70.3508 87.5199 68.6557 88.3575L71.3968 93.9015H71.403ZM21.9958 90.6593C23.784 91.8596 25.6526 92.9486 27.6017 93.9015L30.3427 88.3575C28.6469 87.519 27.0078 86.5703 25.436 85.5174L21.9958 90.6593ZM33.585 96.3827C35.6145 97.0757 37.7059 97.6326 39.8405 98.0533L41.0409 91.9896C39.1874 91.6214 37.3602 91.1315 35.5712 90.5231L33.585 96.3827ZM59.1517 98.0595C61.2735 97.641 63.3652 97.0829 65.4135 96.3889L63.4273 90.5231C61.6382 91.1315 59.811 91.6214 57.9575 91.9896L59.1579 98.0533L59.1517 98.0595ZM46.2632 98.8948C48.4183 99.0343 50.5802 99.0343 52.7353 98.8948L52.3393 92.7197C50.4479 92.842 48.5506 92.842 46.6592 92.7197L46.2632 98.8948ZM52.593 27.8438C52.593 27.0232 52.267 26.2363 51.6868 25.6561C51.1067 25.0759 50.3197 24.75 49.4992 24.75C48.6787 24.75 47.8918 25.0759 47.3116 25.6561C46.7314 26.2363 46.4055 27.0232 46.4055 27.8438V46.4062H27.843C27.0225 46.4062 26.2356 46.7322 25.6554 47.3124C25.0752 47.8926 24.7492 48.6795 24.7492 49.5C24.7492 50.3205 25.0752 51.1074 25.6554 51.6876C26.2356 52.2678 27.0225 52.5938 27.843 52.5938H46.4055V71.1562C46.4055 71.9768 46.7314 72.7637 47.3116 73.3439C47.8918 73.9241 48.6787 74.25 49.4992 74.25C50.3197 74.25 51.1067 73.9241 51.6868 73.3439C52.267 72.7637 52.593 71.9768 52.593 71.1562V52.5938H71.1555C71.976 52.5938 72.7629 52.2678 73.3431 51.6876C73.9233 51.1074 74.2492 50.3205 74.2492 49.5C74.2492 48.6795 73.9233 47.8926 73.3431 47.3124C72.7629 46.7322 71.976 46.4062 71.1555 46.4062H52.593V27.8438Z" fill="#322061"/>
</g>
<defs>
<clipPath id="clip0">
<rect width="99" height="99" fill="white"/>
</clipPath>
</defs>
</svg>
